<svg xmlns="http://www.w3.org/2000/svg" xmlns:xlink="http://www.w3.org/1999/xlink" version="1.1" x="0px" y="0px" viewBox="0 0 100 100" enable-background="new 0 0 100 100" xml:space="preserve"><path d="M87.588,87.588H77.236c1.358-8.764,2.644-30.107-15.242-37.068c18.643-7.254,16.458-30.132,15.071-38.107h10.522  c1.536,0,2.784-1.558,2.784-3.48s-1.248-3.48-2.784-3.48H12.412c-1.537,0-2.784,1.558-2.784,3.48s1.247,3.48,2.784,3.48h7.906  c-0.919,7.976-1.886,30.854,15.764,38.107C19.146,57.48,19.349,78.823,20.208,87.588h-7.796c-1.537,0-2.784,1.558-2.784,3.48  c0,1.922,1.247,3.48,2.784,3.48h75.176c1.536,0,2.784-1.559,2.784-3.48C90.372,89.146,89.124,87.588,87.588,87.588z M30.219,59.767  c3.107-3.752,7.336-6.03,12.82-6.912v-0.47v-3.73v-0.471c-5.483-0.881-9.713-3.16-12.82-6.912  c-6.647-8.028-6.464-20.793-5.882-27.089c-0.015-0.45-0.018-1.033-0.002-1.77h48.541c0.114,0.598,0.186,1.144,0.174,1.583  l0.051-0.003c0.944,5.937,1.949,18.497-4.393,26.677c-3.213,4.142-8.103,6.652-14.532,7.548v0.392v3.823v0.392  c6.428,0.896,11.319,3.407,14.532,7.548c6.344,8.181,5.337,20.741,4.393,26.677l-0.051-0.003c0.003,0.16-0.018,0.356-0.031,0.544  h-3.337c0.649-4.16,1.291-12.22-1.93-18.779c-1.896-1.848-6.054-4.507-11.519,0.048c-3.312,2.76-5.18,1.909-6.232,0.073V44.305  c13.233-0.936,18.408-8.637,20.153-16.562c-13.043,0.262-18.962,9.328-21.535,14.995c-2.475-5.551-8.085-14.365-20.564-14.974  c1.974,7.853,7.066,15.478,19.162,16.518v24.742c-1.064,1.769-2.921,2.544-6.173-0.167c-4.146-3.453-7.535-2.757-9.759-1.417  c-4.071,6.755-3.852,15.688-3.412,20.148h-3.549c0.001-0.271,0.006-0.52,0.014-0.731C23.755,80.56,23.572,67.795,30.219,59.767z"></path></svg>