<svg xmlns="http://www.w3.org/2000/svg" xmlns:xlink="http://www.w3.org/1999/xlink" version="1.1" x="0px" y="0px" viewBox="0 0 90 90" enable-background="new 0 0 90 90" xml:space="preserve"><path d="M71.906,14.008c-0.074,0-0.146,0.012-0.22,0.016c-0.237-0.03-0.482-0.016-0.724,0.059L13.064,31.633  c-2.488,1.002-4.223,5.268-4.223,10.375c0,5.646,1.51,9.33,4.367,10.424l6.81,2.068c-4.24,11.188,0.461,17.554,0.669,17.828  c0.209,0.277,0.498,0.484,0.826,0.598l8.532,2.896c0.234,0.11,0.489,0.171,0.745,0.171c0.355,0,0.719-0.109,1.025-0.332l4.408-3.191  c0.65-0.469,0.896-1.324,0.602-2.064c-0.026-0.062-2.366-6.147-0.064-10.818l33.531,10.186c0.152,0.046,0.306,0.063,0.457,0.068  c0.372,0.11,0.757,0.168,1.156,0.168c6.357,0,9.252-14.514,9.252-28C81.158,28.52,78.264,14.008,71.906,14.008z M20.043,50.854  l-5.7-1.73c-0.963-0.369-2.002-2.754-2.002-7.115c0-4.387,1.434-6.844,1.883-7.076l5.821-1.765c-1.014,2.56-1.579,5.612-1.579,8.841  C18.467,45.237,19.033,48.3,20.043,50.854z M27.637,71.307l-4.42-1.502c-0.787-1.373-2.94-6.264,0.171-14.281l4.825,1.466  C25.979,62.839,26.663,68.008,27.637,71.307z M33.135,70.387l-1.696,1.227c-0.956-2.533-2.209-7.667,0.131-13.604l1.808,0.55  C31.42,63.054,32.449,68.056,33.135,70.387z M24.805,52.3c-1.755-2.282-2.838-6.144-2.838-10.292c0-4.02,1.008-7.811,2.699-10.139  l-0.099-0.072l41.686-12.632c-2.445,5.424-3.599,14.335-3.599,22.843c0,8.529,1.159,17.464,3.618,22.884L24.805,52.3z   M66.154,42.008c0-2.571,0.108-4.932,0.284-7.117l0.696-0.004c0.553,0.207,1.947,2.641,1.947,7.145s-1.395,6.936-1.889,7.133  c-0.195,0-0.47,0.015-0.749,0.034C66.265,46.992,66.154,44.607,66.154,42.008z M71.906,66.508c-1.455,0-3.936-4.813-5.105-13.829  c0.147-0.009,0.285-0.015,0.393-0.015c3.703,0,5.389-5.512,5.389-10.633c0-5.123-1.686-10.637-5.389-10.637h-0.4  c1.166-9.056,3.655-13.887,5.113-13.887c1.951,0,5.752,8.646,5.752,24.5C77.658,57.859,73.857,66.508,71.906,66.508z"></path></svg>