<svg xmlns="http://www.w3.org/2000/svg" xmlns:xlink="http://www.w3.org/1999/xlink" version="1.1" x="0px" y="0px" viewBox="0 0 100 100" enable-background="new 0 0 100 100" xml:space="preserve">
  <path d="M98,50C98,23.532,76.467,2,49.999,2C23.532,2,2,23.532,2,50c0,18.435,10.451,34.466,25.733,42.504  l-0.035,0.061l2.062,0.961c0.259,0.119,0.522,0.224,0.784,0.34c0.393,0.175,0.787,0.35,1.186,0.514  c0.375,0.155,0.753,0.302,1.131,0.447c0.385,0.147,0.771,0.292,1.162,0.431c0.408,0.145,0.817,0.283,1.228,0.415  c0.358,0.116,0.718,0.226,1.079,0.334c0.443,0.133,0.888,0.261,1.334,0.38c0.334,0.088,0.669,0.169,1.006,0.251  c0.471,0.115,0.942,0.229,1.416,0.329c0.327,0.067,0.658,0.126,0.987,0.189c0.482,0.091,0.963,0.184,1.448,0.259  c0.354,0.056,0.711,0.098,1.067,0.146c0.462,0.062,0.922,0.129,1.387,0.177c0.45,0.047,0.904,0.075,1.357,0.109  c0.377,0.029,0.753,0.066,1.132,0.087C48.303,97.977,49.148,98,49.999,98s1.695-0.023,2.536-0.067  c0.378-0.021,0.751-0.058,1.128-0.085c0.455-0.035,0.91-0.063,1.361-0.111c0.463-0.048,0.922-0.114,1.382-0.176  c0.358-0.049,0.717-0.091,1.073-0.146c0.483-0.075,0.963-0.167,1.442-0.259c0.331-0.062,0.664-0.122,0.993-0.19  c0.474-0.1,0.942-0.212,1.412-0.326c0.338-0.083,0.675-0.164,1.01-0.253c0.445-0.119,0.888-0.247,1.331-0.38  c0.362-0.107,0.723-0.218,1.081-0.334c0.411-0.132,0.819-0.271,1.227-0.415c0.39-0.139,0.776-0.283,1.162-0.431  c0.378-0.146,0.758-0.292,1.133-0.449c0.396-0.161,0.789-0.336,1.181-0.51c0.262-0.117,0.526-0.221,0.788-0.342l2.062-0.961  l-0.036-0.061C87.548,84.465,98,68.435,98,50z M65.299,39.519H52.287v-9.957h13.647l-2.976,6.447L65.299,39.519z M49.999,62.272  l16.382,28.373c-0.277,0.112-0.554,0.223-0.833,0.327c-0.242,0.093-0.482,0.188-0.726,0.275c-0.448,0.161-0.903,0.313-1.358,0.46  c-0.211,0.067-0.418,0.138-0.63,0.203c-0.498,0.153-1.001,0.294-1.508,0.43c-0.174,0.047-0.35,0.098-0.525,0.143  c-0.54,0.136-1.084,0.261-1.633,0.378c-0.15,0.031-0.302,0.068-0.453,0.098c-0.562,0.114-1.129,0.213-1.699,0.306  c-0.146,0.022-0.291,0.051-0.437,0.073c-0.564,0.086-1.134,0.154-1.704,0.218c-0.158,0.017-0.315,0.041-0.474,0.056  c-0.568,0.057-1.143,0.097-1.717,0.131c-0.161,0.011-0.319,0.027-0.48,0.035c-0.73,0.036-1.466,0.055-2.205,0.055  s-1.475-0.019-2.204-0.055c-0.161-0.008-0.321-0.024-0.48-0.035c-0.575-0.034-1.149-0.074-1.718-0.131  c-0.157-0.015-0.314-0.039-0.472-0.056c-0.571-0.063-1.14-0.132-1.706-0.218c-0.145-0.022-0.289-0.05-0.435-0.073  c-0.57-0.092-1.139-0.191-1.701-0.306c-0.151-0.029-0.301-0.066-0.452-0.098c-0.547-0.117-1.093-0.242-1.633-0.378  c-0.177-0.045-0.351-0.096-0.527-0.143c-0.505-0.136-1.007-0.276-1.505-0.43c-0.212-0.065-0.424-0.137-0.636-0.204  c-0.454-0.147-0.905-0.298-1.352-0.459c-0.247-0.089-0.491-0.184-0.736-0.277c-0.276-0.104-0.55-0.215-0.824-0.325L49.999,62.272z   M70.18,88.891L52.287,57.898V43.687h20.798l-5.364-8.049l4.729-10.244h-24.42v18.293h0.089v13.508L29.819,88.891  C15.781,81.576,6.168,66.895,6.168,50c0-24.169,19.663-43.832,43.831-43.832c24.169,0,43.833,19.663,43.833,43.832  C93.832,66.894,84.219,81.576,70.18,88.891z">
  </path>
</svg>
