<svg xmlns="http://www.w3.org/2000/svg" xmlns:xlink="http://www.w3.org/1999/xlink" version="1.1" x="0px" y="0px" viewBox="0 0 100 100" enable-background="new 0 0 100 100" xml:space="preserve"><rect fill="none" width="100" height="100"></rect><g><path d="M83.063,58.074L51.715,23.433c-0.89-0.984-2.585-0.984-3.476,0l-31.6,34.915c-0.621,0.686-0.778,1.681-0.403,2.527   c0.376,0.847,1.216,1.392,2.142,1.392h17.636v30.391c0,1.296,1.049,2.343,2.345,2.343h23.234c1.294,0,2.344-1.047,2.344-2.343   V62.267h17.638c0.007,0,0.015,0,0.021,0c1.239,0.013,2.368-1.045,2.368-2.343C83.965,59.172,83.613,58.503,83.063,58.074z    M61.594,57.579c-1.293,0-2.343,1.049-2.343,2.345v30.388H40.7V59.924c0-1.296-1.047-2.345-2.341-2.345h-14.7l26.316-29.086   l26.318,29.086H61.594z"></path><path d="M19.246,50.65l30.73-33.96l30.73,33.96c0.229,0.257,0.55,0.384,0.869,0.384c0.28,0,0.561-0.1,0.786-0.301   c0.479-0.437,0.517-1.179,0.082-1.657L50.846,14.159c-0.445-0.495-1.294-0.495-1.737,0l-31.6,34.917   c-0.435,0.479-0.397,1.221,0.083,1.657C18.071,51.166,18.813,51.131,19.246,50.65z"></path><path d="M19.246,41.863l30.73-33.96l30.73,33.96c0.229,0.255,0.55,0.384,0.869,0.384c0.28,0,0.561-0.102,0.786-0.303   c0.479-0.435,0.517-1.177,0.082-1.658L50.846,5.372c-0.445-0.496-1.294-0.496-1.737,0l-31.6,34.915   c-0.435,0.481-0.397,1.223,0.083,1.658C18.071,42.379,18.813,42.34,19.246,41.863z"></path></g></svg>