<?xml version="1.0" encoding="utf-8"?>
<!-- Generator: Adobe Illustrator 19.1.0, SVG Export Plug-In . SVG Version: 6.00 Build 0)  -->
<svg version="1.1" id="Layer_1" xmlns="http://www.w3.org/2000/svg" xmlns:xlink="http://www.w3.org/1999/xlink" x="0px" y="0px"
	 viewBox="-349 351 100 100" style="enable-background:new -349 351 100 100;" xml:space="preserve">
<style type="text/css">
	.st0{fill:none;}
</style>
<path class="st0" d="M-267.9,389.5c0,0,6.6-7.5,4-8.8c-4.1-2.1-10-2.4-15.8-0.5c-3.4,1.1-6.4,2.9-8.8,4.9c1.1-2.7,1.8-5.9,1.8-9.3
	c0-6.3-2.2-11.8-5.5-15.1c-2-2-7,6.7-7,6.7s-5.1-8.6-7.1-6.6c-3.2,3.3-5.3,8.7-5.3,14.9c0,3.5,0.7,6.9,1.9,9.6
	c-2.4-2.3-5.5-4.2-9.2-5.4c-6-1.9-11.9-1.6-16,0.6c-2.5,1.3,4.2,8.7,4.2,8.7s-9.8,2.2-8.5,4.8c2.1,4.1,6.6,7.8,12.5,9.7
	c3.6,1.2,7.2,1.5,10.4,1.1c-2.8,1.5-5.4,3.9-7.6,6.9c-3.7,5.1-5.2,10.8-4.4,15.4c0.5,2.8,9.6-1.3,9.6-1.3s-0.9,10,1.9,9.5
	c4.5-0.8,9.5-3.9,13.1-8.9c2.2-3,3.6-6.2,4.2-9.3c0.6,3.1,2,6.3,4.2,9.2c3.7,5.1,8.7,8.3,13.3,8.9c2.8,0.4,1.7-9.5,1.7-9.5
	s9.2,4,9.7,1.1c0.7-4.5-0.8-10.2-4.4-15.2c-2.1-2.9-4.6-5.2-7.3-6.7c3.2,0.4,6.7,0.1,10.3-1.1c6-1.9,10.5-5.7,12.6-9.9
	C-258.1,391.6-267.9,389.5-267.9,389.5z M-285.7,397.5c-0.3,0.1-0.6,0.1-0.9,0.1c-0.6,0-1.2-0.3-1.6-0.8l-4.6,1.5l-1.2,0.4
	c0,0.2,0.1,0.5,0.1,0.7c0,1.5-0.6,2.8-1.5,3.8l0.5,0.7l3.1,4.2c0.6-0.1,1.2,0,1.7,0.3c0.3,0.2,0.5,0.4,0.7,0.6
	c0.8,1.1,0.5,2.6-0.5,3.4c-1.1,0.8-2.6,0.5-3.4-0.5c-0.2-0.3-0.3-0.6-0.4-0.8c-0.2-0.6-0.1-1.2,0.2-1.8l-3.1-4.2l-0.6-0.8
	c-0.7,0.4-1.5,0.5-2.4,0.5s-1.6-0.2-2.3-0.5l-0.5,0.6l-3.2,4.3c0.3,0.5,0.4,1.2,0.2,1.8c-0.1,0.3-0.2,0.6-0.4,0.8
	c-0.8,1.1-2.3,1.3-3.4,0.5c-1.1-0.8-1.3-2.3-0.5-3.4c0.2-0.3,0.4-0.5,0.7-0.6c0.5-0.3,1.1-0.4,1.8-0.3l3.1-4.3l0.5-0.7
	c-0.9-1-1.5-2.3-1.5-3.8c0-0.2,0-0.5,0-0.7l-0.9-0.3l-4.9-1.6c-0.4,0.5-1,0.7-1.6,0.8c-0.3,0-0.6,0-0.9-0.1c-1.3-0.4-2-1.8-1.6-3
	c0.4-1.3,1.8-2,3-1.5c0.3,0.1,0.6,0.3,0.8,0.4c0.5,0.4,0.8,1,0.8,1.6l4.9,1.6l1,0.3c0.8-1.4,2.2-2.5,3.8-2.8V388
	c-0.6-0.2-1-0.7-1.2-1.3c-0.1-0.3-0.2-0.6-0.2-0.9c0-1.3,1.1-2.4,2.4-2.4c1.3,0,2.4,1.1,2.4,2.4c0,0.3-0.1,0.6-0.2,0.9
	c-0.2,0.6-0.7,1-1.2,1.3v6.1c1.6,0.3,3,1.3,3.8,2.8l1.3-0.4l4.6-1.5c0.1-0.6,0.4-1.2,0.8-1.6c0.2-0.2,0.5-0.3,0.8-0.4
	c1.3-0.4,2.6,0.3,3,1.5C-283.8,395.8-284.5,397.1-285.7,397.5z"/>
</svg>
