<svg xmlns="http://www.w3.org/2000/svg" xmlns:xlink="http://www.w3.org/1999/xlink" version="1.1" x="0px" y="0px" viewBox="0 0 100 100" enable-background="new 0 0 100 100" xml:space="preserve"><path d="M81.08,38.55c0,0,6.62-7.53,4.04-8.82c-4.12-2.06-9.96-2.39-15.82-0.49c-3.45,1.12-6.439,2.86-8.75,4.94  c1.13-2.73,1.78-5.92,1.78-9.33c0-6.27-2.19-11.8-5.51-15.06c-1.99-1.96-6.98,6.73-6.98,6.73s-5.12-8.63-7.15-6.57  c-3.23,3.28-5.34,8.73-5.34,14.9c0,3.55,0.7,6.86,1.91,9.65c-2.36-2.27-5.52-4.18-9.21-5.38c-5.96-1.94-11.89-1.57-16.02,0.59  c-2.48,1.29,4.24,8.72,4.24,8.72s-9.78,2.2-8.46,4.76c2.13,4.09,6.65,7.78,12.52,9.69c3.63,1.18,7.23,1.5,10.43,1.09  c-2.75,1.55-5.39,3.88-7.56,6.88c-3.69,5.07-5.17,10.83-4.4,15.42c0.47,2.75,9.61-1.34,9.61-1.34s-0.93,9.99,1.92,9.511  c4.54-0.75,9.45-3.91,13.08-8.9c2.16-2.98,3.57-6.19,4.2-9.271c0.63,3.07,2.03,6.28,4.19,9.25c3.69,5.07,8.7,8.261,13.311,8.94  c2.76,0.41,1.689-9.54,1.689-9.54s9.21,3.96,9.65,1.11c0.68-4.55-0.811-10.2-4.431-15.2c-2.1-2.88-4.619-5.16-7.26-6.71  c3.16,0.38,6.7,0.05,10.26-1.11c5.961-1.939,10.54-5.73,12.61-9.89C90.88,40.61,81.08,38.55,81.08,38.55z M63.29,46.55  c-0.31,0.1-0.62,0.13-0.92,0.11c-0.61-0.04-1.19-0.32-1.59-0.78l-4.65,1.51l-1.2,0.4c0.03,0.23,0.051,0.47,0.051,0.71  c0,1.46-0.58,2.78-1.511,3.76L54,53l3.09,4.24c0.601-0.12,1.22-0.01,1.74,0.31c0.26,0.16,0.49,0.37,0.68,0.63  c0.78,1.08,0.54,2.58-0.529,3.36c-1.08,0.79-2.58,0.55-3.36-0.53c-0.19-0.26-0.32-0.55-0.39-0.84c-0.15-0.6-0.061-1.229,0.239-1.76  L52.4,54.19l-0.551-0.75c-0.71,0.35-1.51,0.54-2.35,0.54s-1.64-0.19-2.35-0.54l-0.47,0.64l-3.15,4.33c0.3,0.53,0.39,1.16,0.23,1.76  c-0.06,0.29-0.19,0.58-0.38,0.84c-0.78,1.08-2.28,1.32-3.36,0.53c-1.07-0.78-1.31-2.28-0.53-3.36c0.19-0.26,0.42-0.47,0.68-0.63  c0.52-0.319,1.15-0.43,1.75-0.31l3.13-4.32l0.48-0.66c-0.93-0.979-1.51-2.3-1.51-3.76c0-0.24,0.02-0.48,0.05-0.71l-0.94-0.31  l-4.91-1.6c-0.4,0.46-0.98,0.74-1.59,0.78c-0.3,0.02-0.61-0.01-0.92-0.11c-1.26-0.41-1.96-1.77-1.55-3.03  c0.41-1.27,1.77-1.96,3.04-1.55c0.31,0.1,0.58,0.26,0.81,0.45c0.46,0.4,0.76,0.96,0.83,1.56l4.88,1.59l0.97,0.32  c0.77-1.43,2.16-2.47,3.81-2.77v-6.15c-0.56-0.25-1-0.71-1.23-1.28c-0.12-0.28-0.18-0.59-0.18-0.91c0-1.33,1.08-2.4,2.41-2.4  s2.41,1.07,2.41,2.4c0,0.32-0.061,0.63-0.18,0.91c-0.23,0.57-0.671,1.03-1.23,1.28v6.15c1.65,0.3,3.04,1.34,3.81,2.77l1.28-0.42  l4.57-1.49c0.07-0.6,0.37-1.16,0.83-1.56c0.229-0.19,0.5-0.35,0.81-0.45c1.271-0.41,2.62,0.28,3.03,1.55  C65.25,44.78,64.55,46.14,63.29,46.55z"></path></svg>